HIERARCHY
ROOT hip
{
	OFFSET 0.000000 0.000000 0.000000 
	CHANNELS 6 Xposition Yposition Zposition Xrotation Zrotation Yrotation
	JOINT abdomen
	{
		OFFSET 0.000000 3.402643 0.000000 
		CHANNELS 3 Xrotation Zrotation Yrotation
		JOINT chest
		{
			OFFSET 0.000000 8.438565 -0.680529 
			CHANNELS 3 Xrotation Zrotation Yrotation
			JOINT neck
			{
				OFFSET 0.000000 10.207942 -0.272212 
				CHANNELS 3 Xrotation Zrotation Yrotation
				JOINT head
				{
					OFFSET 0.000000 3.130431 0.000000 
					CHANNELS 3 Xrotation Zrotation Yrotation
					End Site
					{
						OFFSET 0.000000 3.130435 0.000000 
					}
				}
			}
			JOINT lCollar
			{
				OFFSET 3.470700 6.669187 -0.816635 
				CHANNELS 3 Yrotation Zrotation Xrotation
				JOINT lShldr
				{
					OFFSET 3.198488 0.000000 0.000000 
					CHANNELS 3 Zrotation Yrotation Xrotation
					JOINT lForeArm
					{
						OFFSET 10.139888 0.000000 0.000000 
						CHANNELS 3 Yrotation Zrotation Xrotation
						JOINT lHand
						{
							OFFSET 8.370511 0.000000 0.000000 
							CHANNELS 3 Zrotation Yrotation Xrotation
							End Site
							{
								OFFSET 4.083176 0.000000 0.000000 
							}
						}
					}
				}
			}
			JOINT rCollar
			{
				OFFSET -3.470700 6.669187 -0.816635 
				CHANNELS 3 Yrotation Zrotation Xrotation
				JOINT rShldr
				{
					OFFSET -3.198488 0.000000 0.000000 
					CHANNELS 3 Zrotation Yrotation Xrotation
					JOINT rForeArm
					{
						OFFSET -10.139888 0.000000 0.000000 
						CHANNELS 3 Yrotation Zrotation Xrotation
						JOINT rHand
						{
							OFFSET -8.370511 0.000000 0.000000 
							CHANNELS 3 Zrotation Yrotation Xrotation
							End Site
							{
								OFFSET -4.083176 0.000000 0.000000 
							}
						}
					}
				}
			}
		}
	}
	JOINT lThigh
	{
		OFFSET 5.308129 -1.633274 1.361059 
		CHANNELS 3 Xrotation Zrotation Yrotation
		JOINT lShin
		{
			OFFSET -2.041588 -20.007561 0.000000 
			CHANNELS 3 Xrotation Zrotation Yrotation
			JOINT lFoot
			{
				OFFSET 0.000000 -19.190928 -1.224953 
				CHANNELS 3 Xrotation Yrotation Zrotation
				End Site
				{
					OFFSET 0.000000 -2.449906 4.627600 
				}
			}
		}
	}
	JOINT rThigh
	{
		OFFSET -5.308129 -1.633274 1.361059 
		CHANNELS 3 Xrotation Zrotation Yrotation
		JOINT rShin
		{
			OFFSET 2.041588 -20.007561 0.000000 
			CHANNELS 3 Xrotation Zrotation Yrotation
			JOINT rFoot
			{
				OFFSET 0.000000 -19.190928 -1.224953 
				CHANNELS 3 Xrotation Yrotation Zrotation
				End Site
				{
					OFFSET 0.000000 -2.449906 4.627600 
				}
			}
		}
	}
}
MOTION
Frames: 20
Frame Time: 0.033333
0.738784 53.448566 -11.459043 -0.766717 -3.184728 -7.599975 0.000000 0.000000 0.000000 -1.260838 1.855220 -0.937957 11.491069 -5.134350 -9.482027 17.174519 19.998846 -13.951422 0.738332 7.208727 -0.669794 -34.260017 3.410271 -19.125147 -9.791935 6.030702 9.444371 1.325012 -5.800646 -3.476884 -1.108661 -1.502786 -0.566363 20.746868 -0.932677 -7.526574 13.872676 -4.603598 14.362412 -1.828092 3.205937 -3.516155 3.571109 11.273670 7.657317 2.307914 -1.360186 13.582935 -1.836964 0.139384 -6.448502 2.008192 -7.051961 -5.206037 0.273429 4.650336 -3.887948 2.449927 0.097999 5.421712 
0.918718 53.481380 -11.794339 -0.288883 -3.549792 -8.982572 0.000000 0.000000 0.000000 -0.567002 1.669654 -1.025809 12.242944 -4.992238 -11.156415 19.982334 21.356100 -15.025441 0.096642 5.927751 0.009713 -41.152481 6.465600 -20.412745 -17.588163 7.004969 7.137041 -2.117232 -3.273612 -3.284876 -1.749362 0.699847 0.107364 25.022957 -1.025473 -6.739491 22.252636 -4.323736 16.387581 -0.830029 2.082727 -3.465298 1.862929 11.604245 7.512609 4.579807 -1.341484 14.814155 -2.619109 0.173991 -5.965878 0.829315 -7.125982 -5.298602 0.507399 5.288572 -2.091949 3.850282 0.156740 5.003297 
1.071216 53.477470 -12.110701 0.157518 -4.325276 -10.891411 0.000000 0.000000 0.000000 0.318346 1.855172 -1.025802 13.025396 -4.956024 -12.116463 21.760511 22.680590 -15.893971 -0.499407 4.582797 0.871795 -47.905617 7.691817 -21.055456 -21.798626 7.716864 3.977430 -3.635287 -0.905732 -3.298620 -2.010256 2.818386 0.957220 29.482252 0.230786 -5.273953 26.953167 -3.946858 20.379740 0.459889 2.463307 -3.394849 1.619857 12.397655 8.083699 4.946776 -1.442995 15.563642 -2.777750 0.189398 -6.531577 -0.332530 -6.952767 -5.275594 1.073904 6.129176 1.001702 5.531495 0.248566 4.500998 
1.195924 53.463593 -12.401356 0.844359 -4.715608 -13.239415 0.000000 0.000000 0.000000 0.954199 1.962628 -0.937953 13.256958 -5.250951 -12.652061 23.276072 22.634571 -16.251181 -0.309008 3.293960 1.466897 -54.128189 7.510724 -19.037031 -24.169645 7.242888 0.753795 -3.012890 1.983865 -3.436539 -2.292323 3.786203 1.574084 35.022133 2.125700 -2.791632 29.400860 -3.219489 24.238247 1.856563 2.026862 -3.342095 1.961095 12.913687 8.904119 3.784381 -1.812726 18.116962 -1.983424 0.142027 -7.164997 -4.089482 -7.406248 -5.428619 6.626975 7.205720 6.684453 4.904703 0.192860 3.907413 
1.315737 53.404465 -12.740712 1.563704 -4.932213 -16.263790 0.000000 0.000000 0.000000 1.553909 2.031167 -0.517599 13.339467 -5.702890 -12.474877 23.717085 22.577944 -16.521635 -0.048383 1.933087 2.012550 -59.356892 7.196549 -15.509702 -26.811941 6.130712 0.139706 -5.095290 4.318624 -3.550413 -1.774396 4.390803 2.114228 39.535572 3.747171 2.318940 29.876675 -1.045019 23.374182 4.070975 2.180962 -3.220481 0.721927 13.609172 9.521114 5.969277 -2.260426 20.154026 -2.915990 0.210733 -7.558736 -8.120384 -7.836467 -5.373650 12.298089 7.956407 12.851866 4.337754 0.112044 2.519122 
1.303943 53.376675 -12.873003 1.673209 -5.478033 -18.407993 0.000000 0.000000 0.000000 2.383639 2.285080 -0.468767 13.272532 -5.734713 -12.329158 24.094894 21.634172 -16.386122 -0.402552 1.437171 2.793747 -63.545387 6.288860 -9.304983 -29.043854 3.466485 -0.316465 -6.879211 5.284750 -3.641074 -1.978489 5.473630 2.902043 44.381340 5.193820 5.494754 29.929766 0.200813 25.183697 6.432218 0.414390 -3.235660 0.742054 14.267719 10.027204 7.157085 -2.225528 21.461761 -3.473070 0.268969 -8.181338 -9.832925 -8.104421 -5.780706 15.575714 8.779007 16.605820 4.571573 0.168274 3.122163 
1.189817 53.371330 -13.036237 2.152544 -5.533267 -20.589083 0.000000 0.000000 0.000000 2.666669 2.226544 -0.234198 12.971085 -5.684961 -11.974556 24.269766 20.859091 -16.171425 -0.957403 1.259184 3.066770 -66.151512 3.992221 -1.353084 -30.314510 0.013501 2.032015 -5.885716 8.641378 -3.843624 -1.837560 6.344095 3.172507 49.616699 6.085507 7.016279 27.033606 0.998455 28.335445 6.441278 5.356463 -2.890788 0.877609 14.408522 9.967296 7.047803 -1.795970 23.384741 -3.278618 0.245215 -8.777113 -11.562301 -8.105373 -5.825712 17.263226 8.915377 15.775596 2.962044 0.061818 1.707536 
0.959141 53.429573 -13.075475 2.302852 -5.564327 -22.180515 0.000000 0.000000 0.000000 2.949440 2.177649 -0.507817 12.659685 -5.507389 -11.774480 24.388123 19.579044 -15.442410 -1.473315 1.284020 3.319970 -68.155235 0.831421 6.384382 -32.368042 -2.879283 8.079029 -8.759901 6.133176 -3.740069 -2.364666 6.764997 3.459454 54.513905 6.391824 9.413955 24.445999 2.446925 26.731512 7.681753 3.476896 -2.945540 2.506332 14.464149 10.537685 4.768450 -1.693078 24.755543 -2.197900 0.208803 -8.857057 -11.762879 -7.984504 -6.063841 16.399427 8.574731 8.942822 2.272167 0.043670 0.596104 
0.580114 53.467274 -13.087381 2.614472 -5.285317 -23.308283 0.000000 0.000000 0.000000 2.805650 2.206554 -1.192027 12.465093 -6.033615 -11.765907 24.290430 19.930763 -15.112152 -1.834093 1.139549 3.202076 -68.878738 -3.780454 14.949283 -34.282997 -5.805386 17.493227 -8.842131 3.844655 -3.533916 -2.309959 5.522438 3.264649 60.828007 5.782059 11.211583 20.527210 3.590340 22.314358 7.052107 2.449834 -3.069631 4.643920 14.572275 11.545246 1.461998 -2.107680 23.705263 -1.264791 0.103991 -8.620729 -11.248586 -7.723411 -6.327991 13.411448 7.857294 -0.898205 1.904000 -0.037444 -0.470175 
0.086997 53.448509 -13.048131 2.973821 -4.609871 -24.371424 0.000000 0.000000 0.000000 2.303460 1.981520 -1.729508 12.196506 -6.307715 -11.909163 24.036129 19.570223 -14.764970 -2.609382 0.999307 2.741786 -69.633057 -9.394117 23.010054 -35.804760 -8.414433 23.736372 -9.472413 2.738702 -3.431503 -2.750483 5.282889 2.791860 64.631538 4.233649 13.487528 18.441204 4.973688 19.834959 9.036880 0.539184 -3.137834 4.907822 14.445855 11.497910 1.006276 -1.925027 25.089025 -0.998261 0.071532 -9.369387 -10.043664 -7.495292 -6.282568 8.299306 6.863605 -10.883744 3.423449 -0.029606 -0.433652 
-0.605315 53.409042 -13.021975 3.365417 -4.611939 -25.273403 0.000000 0.000000 0.000000 1.976655 2.224982 -2.159609 11.872361 -6.124619 -11.973927 24.073563 19.168507 -14.436759 -3.399713 1.544414 2.467391 -70.644150 -14.837517 30.120028 -38.598522 -9.808216 28.981480 -9.389633 1.599845 -3.330745 -3.608269 5.509153 2.555805 67.066620 1.888497 15.446782 18.083008 5.992548 21.956516 12.091611 1.778599 -2.883973 5.331011 15.224024 12.092529 0.869126 -1.653272 25.565567 -0.748990 0.109649 -10.393284 -6.910273 -6.275141 -5.659209 -0.291704 5.915255 -19.630495 8.333731 0.046814 0.949003 
-1.476097 53.291954 -13.016905 3.909391 -3.505358 -27.076674 0.000000 0.000000 0.000000 1.068840 1.785964 -2.051611 11.281610 -6.715936 -11.634538 24.015589 19.237854 -14.162922 -3.694376 1.097793 1.608275 -70.251755 -18.985420 35.620762 -42.838974 -10.154649 36.743893 -3.206675 -1.038376 -3.315949 -3.473329 5.164142 1.683115 69.441605 -1.482893 16.067587 18.521666 6.165226 19.899519 14.822289 0.807933 -2.897603 5.652138 15.348351 12.428152 0.916695 -1.714250 26.031851 -1.070167 0.117379 -11.709654 -7.586707 -5.829072 -4.767623 -1.303506 5.199215 -21.336489 6.933561 -0.051107 0.351633 
-2.549991 53.119667 -12.970884 4.161334 -3.928930 -28.824665 0.000000 0.000000 0.000000 0.802756 2.342175 -2.101047 11.006679 -6.614230 -11.061896 24.166801 18.681595 -13.702714 -3.627105 2.098567 1.414061 -70.509781 -22.762325 39.563286 -46.545383 -10.122990 30.875261 -1.906209 -3.535205 -3.286546 -3.309869 5.308335 1.458264 71.469780 -5.060219 15.357518 19.488098 5.568018 18.539196 16.294008 -0.074904 -2.982347 6.969164 16.586699 13.494516 0.975830 -0.961283 27.181246 -0.772589 0.088155 -13.664754 -7.145616 -4.109505 -3.980770 -1.489673 5.259299 -22.914572 6.132821 -0.013852 0.056999 
-3.680278 53.080971 -12.966939 3.900414 -4.982803 -31.205795 0.000000 0.000000 0.000000 1.385872 3.064496 -2.024335 11.115764 -6.113803 -10.186273 23.824982 17.788380 -13.096478 -3.348906 2.747186 1.981072 -69.799057 -25.818769 40.764210 -48.744148 -9.333802 28.636440 0.346888 -6.367618 -3.387323 -2.984107 5.963899 2.009912 71.935585 -6.697670 15.615517 20.359816 5.670189 16.503040 16.247725 -2.052213 -3.300215 9.267168 17.978090 15.468271 1.024146 -0.298209 28.479004 -0.329012 0.055057 -15.515089 -6.032861 -1.952631 -3.085037 -1.592193 5.399544 -22.712692 5.349998 -0.070216 -0.187147 
-4.895062 53.101471 -13.046300 4.957749 -5.811957 -33.299038 0.000000 0.000000 0.000000 0.924777 4.116787 -2.623750 11.166290 -5.454976 -9.310644 23.209049 16.979763 -12.116637 -3.696493 3.538266 1.640212 -69.005432 -26.364231 39.681190 -50.214458 -8.482839 24.494705 1.845980 -7.159048 -3.517002 -2.412642 6.411232 1.571079 71.789612 -7.520936 16.477777 19.908562 6.173004 17.847239 15.176707 -2.848631 -3.428403 10.238683 19.828648 17.660488 1.209707 -0.057338 28.158976 -0.333303 0.044139 -16.948240 -5.844405 0.497486 -1.762057 -1.637933 5.651466 -21.961296 5.154872 -0.066749 -0.165706 
-6.124581 53.113621 -13.078114 4.677743 -5.406407 -34.895298 0.000000 0.000000 0.000000 0.888200 3.683939 -3.650101 10.926536 -5.478759 -9.016253 25.435955 15.999028 -10.152086 -3.130904 3.141087 1.513483 -68.103897 -25.777670 36.381397 -50.262852 -7.330576 24.795275 -0.541339 -7.818007 -3.284580 -4.007010 6.023916 1.596721 70.286530 -6.662058 18.917084 19.658695 7.470316 20.557484 15.221951 -3.714725 -3.552327 11.223853 19.749966 18.001337 1.867930 0.938820 29.216059 -0.259586 0.072960 -18.944870 -4.767005 0.926093 -1.984690 -1.679121 6.551944 -19.208204 3.786798 -0.084789 -0.668530 
-7.249636 53.056034 -13.084751 4.285961 -4.996487 -36.302460 0.000000 0.000000 0.000000 0.764001 3.244352 -3.921889 11.001884 -4.701367 -8.701705 25.496414 14.658331 -9.268649 -4.223273 3.615422 1.444147 -68.217575 -24.623480 32.262745 -48.557037 -6.950363 21.892574 -0.604392 -6.559946 -3.298899 -4.824892 6.202188 1.527274 68.118332 -6.687901 20.949509 22.217258 8.299231 22.251820 13.490898 -5.203583 -3.753644 11.658711 19.217857 17.095482 2.397400 3.038135 31.409189 3.077643 -0.480490 -17.498280 -3.657607 1.277447 -2.052477 -1.705769 7.163403 -16.565462 3.130825 -0.040428 -0.768706 
-8.252067 52.925331 -13.060383 4.038490 -4.847295 -37.766388 0.000000 0.000000 0.000000 0.769240 3.311880 -4.088742 11.055539 -4.048150 -8.390854 25.254421 13.374883 -8.712553 -4.765364 4.428167 1.492951 -69.083466 -23.820560 28.618931 -45.342773 -6.621187 21.120632 -0.892845 -5.129227 -3.306087 -5.115251 5.986812 1.554608 66.245781 -6.502223 22.244787 24.636440 8.608985 22.687326 12.036376 -5.497504 -3.761263 4.986500 19.934797 13.675110 15.042171 5.362191 34.282555 2.551125 -0.361695 -16.384144 -2.932399 1.947681 -1.821103 -1.071650 7.336460 -15.305156 2.195057 -0.034621 -1.007816 
-9.090215 52.848148 -12.955785 3.784280 -4.975399 -39.484692 0.000000 0.000000 0.000000 1.086521 3.799644 -3.933964 11.361136 -3.404915 -7.905027 24.250885 12.471308 -8.561389 -4.729142 4.557241 1.845439 -69.721680 -23.664133 25.244221 -41.060928 -6.465641 21.364317 -0.191976 -3.024516 -3.393730 -4.979971 6.654795 1.909542 63.167522 -5.835386 22.853544 26.859480 8.681344 21.463692 10.946083 -4.808156 -3.671443 -1.416953 20.347176 10.665346 27.224766 6.335330 30.932745 -0.062261 0.030841 -16.073545 -2.723716 2.703703 -1.498756 0.879206 7.380710 -13.250991 0.691916 -0.044860 -1.475588 
-9.830981 52.858086 -12.832030 2.965285 -4.811526 -41.634602 0.000000 0.000000 0.000000 1.802769 4.026737 -3.249947 11.740498 -3.604691 -7.143587 23.455650 12.273128 -8.716039 -4.728981 3.956311 2.517420 -70.131516 -23.795898 22.189171 -36.575665 -6.468880 20.892927 0.122318 -2.047132 -3.420319 -3.713811 6.115819 2.470246 61.207909 -4.003078 22.395906 27.029819 8.524583 19.202648 9.293044 -4.022735 -3.577651 -5.897578 19.329784 8.337549 35.574703 6.174435 24.874508 -2.773368 0.315733 -13.262462 -2.284252 2.830632 -1.412653 2.509641 7.254651 -11.280759 -0.226206 -0.029533 -1.819505 
